<?xml version="1.0" encoding="UTF-8" standalone="no"?>
<!-- Generator: Adobe Illustrator 19.0.0, SVG Export Plug-In . SVG Version: 6.00 Build 0)  -->

<svg
   xmlns:dc="http://purl.org/dc/elements/1.1/"
   xmlns:cc="http://creativecommons.org/ns#"
   xmlns:rdf="http://www.w3.org/1999/02/22-rdf-syntax-ns#"
   xmlns:svg="http://www.w3.org/2000/svg"
   xmlns="http://www.w3.org/2000/svg"
   xmlns:xlink="http://www.w3.org/1999/xlink"
   xmlns:sodipodi="http://sodipodi.sourceforge.net/DTD/sodipodi-0.dtd"
   xmlns:inkscape="http://www.inkscape.org/namespaces/inkscape"
   version="1.1"
   id="Capa_1"
   x="0px"
   y="0px"
   viewBox="0 0 128 128"
   xml:space="preserve"
   sodipodi:docname="iconwhite.svg"
   width="128"
   height="128"
   inkscape:version="0.92.4 (5da689c313, 2019-01-14)"><metadata
   id="metadata924"><rdf:RDF><cc:Work
       rdf:about=""><dc:format>image/svg+xml</dc:format><dc:type
         rdf:resource="http://purl.org/dc/dcmitype/StillImage" /><dc:title></dc:title></cc:Work></rdf:RDF></metadata><defs
   id="defs922"><linearGradient
     inkscape:collect="always"
     id="linearGradient1476"><stop
       style="stop-color:#c12766;stop-opacity:1;"
       offset="0"
       id="stop1472" /><stop
       style="stop-color:#c12766;stop-opacity:0;"
       offset="1"
       id="stop1474" /></linearGradient><linearGradient
     inkscape:collect="always"
     xlink:href="#linearGradient1476"
     id="linearGradient1478"
     x1="-0.5"
     y1="256"
     x2="512.5"
     y2="256"
     gradientUnits="userSpaceOnUse" /></defs><sodipodi:namedview
   pagecolor="#ffffff"
   bordercolor="#666666"
   borderopacity="1"
   objecttolerance="10"
   gridtolerance="10"
   guidetolerance="10"
   inkscape:pageopacity="0"
   inkscape:pageshadow="2"
   inkscape:window-width="1920"
   inkscape:window-height="1027"
   id="namedview920"
   showgrid="false"
   inkscape:zoom="1.84375"
   inkscape:cx="146.98305"
   inkscape:cy="91.258326"
   inkscape:window-x="-8"
   inkscape:window-y="-8"
   inkscape:window-maximized="1"
   inkscape:current-layer="g885" />
<g
   id="g887"
   transform="matrix(0.25105933,0,0,0.25317796,0,-0.54237265)">
	<g
   id="g885"
   style="stroke:#c12766;stroke-opacity:1">
		<path
   d="M 497,241 H 391.5 v -58.366 h 81.399 c 8.284,0 15,-6.716 15,-15 0,-8.284 -6.716,-15 -15,-15 H 391.5 v -66.4 h 33.2 c 8.284,0 15,-6.716 15,-15 0,-8.284 -6.716,-15 -15,-15 H 391.5 V 15 c 0,-8.284 -6.716,-15 -15,-15 H 15 C 6.716,0 0,6.716 0,15 v 241 c 0,8.284 6.716,15 15,15 h 105.5 v 58.367 H 87.3 c -8.284,0 -15,6.716 -15,15 0,8.284 6.716,15 15,15 h 33.2 v 66.399 H 39.1 c -8.284,0 -15,6.716 -15,15 0,8.284 6.716,15 15,15 h 81.4 V 497 c 0,8.284 6.716,15 15,15 H 497 c 8.284,0 15,-6.716 15,-15 V 256 c 0,-8.284 -6.716,-15 -15,-15 z M 449.396,271 316.25,358.548 183.104,271 H 376.5 Z M 328.897,30 195.75,117.548 62.603,30 Z M 30,241 V 44.466 l 157.509,103.567 c 2.501,1.645 5.371,2.467 8.241,2.467 2.87,0 5.74,-0.822 8.241,-2.467 L 361.5,44.466 V 241 h -226 z M 482,482 H 150.5 V 285.466 l 157.509,103.567 c 2.501,1.645 5.371,2.467 8.241,2.467 2.87,0 5.74,-0.822 8.241,-2.467 L 482,285.466 Z"
   id="path883"
   inkscape:connector-curvature="0"
   style="stroke:#f3f3f3;stroke-opacity:1;fill:#ffffff;fill-opacity:1;opacity:1" />
	</g>
</g>
<g
   id="g889"
   transform="translate(0,-384)">
</g>
<g
   id="g891"
   transform="translate(0,-384)">
</g>
<g
   id="g893"
   transform="translate(0,-384)">
</g>
<g
   id="g895"
   transform="translate(0,-384)">
</g>
<g
   id="g897"
   transform="translate(0,-384)">
</g>
<g
   id="g899"
   transform="translate(0,-384)">
</g>
<g
   id="g901"
   transform="translate(0,-384)">
</g>
<g
   id="g903"
   transform="translate(0,-384)">
</g>
<g
   id="g905"
   transform="translate(0,-384)">
</g>
<g
   id="g907"
   transform="translate(0,-384)">
</g>
<g
   id="g909"
   transform="translate(0,-384)">
</g>
<g
   id="g911"
   transform="translate(0,-384)">
</g>
<g
   id="g913"
   transform="translate(0,-384)">
</g>
<g
   id="g915"
   transform="translate(0,-384)">
</g>
<g
   id="g917"
   transform="translate(0,-384)">
</g>
</svg>